<svg width="398" height="141" viewBox="0 0 398 141" fill="none" xmlns="http://www.w3.org/2000/svg">
	<path d="M0 30.3431L4.68756 26.2936C9.46356 22.3536 18.8387 14.2548 28.3022 13.9264C37.7658 13.5981 47.1409 20.8214 56.6044 21.3686C66.068 21.9159 75.4431 15.787 85.0835 14.802C94.6355 13.9264 104.364 18.3042 113.916 17.2098C123.557 16.1153 132.932 9.54863 142.396 9.87697C151.859 10.3147 161.234 17.5381 170.698 17.2098C180.161 16.8814 189.536 8.78252 199 4.40474C208.464 0.0269656 217.839 -0.629674 227.302 0.46477C236.766 1.55921 246.141 4.40476 255.604 7.90698C265.068 11.4092 274.443 15.3492 284.084 18.6325C293.636 21.9159 303.364 24.5425 312.916 22.682C322.557 20.8214 331.932 14.6925 341.396 13.1603C350.859 11.7375 360.234 15.0209 369.698 15.2398C379.161 15.3492 388.536 12.5036 393.312 10.9714L398 9.54865V140.882H393.312C388.536 140.882 379.161 140.882 369.698 140.882C360.234 140.882 350.859 140.882 341.396 140.882C331.932 140.882 322.557 140.882 312.916 140.882C303.364 140.882 293.636 140.882 284.084 140.882C274.443 140.882 265.068 140.882 255.604 140.882C246.141 140.882 236.766 140.882 227.302 140.882C217.839 140.882 208.464 140.882 199 140.882C189.536 140.882 180.161 140.882 170.698 140.882C161.234 140.882 151.859 140.882 142.396 140.882C132.932 140.882 123.557 140.882 113.916 140.882C104.364 140.882 94.6355 140.882 85.0835 140.882C75.4431 140.882 66.068 140.882 56.6044 140.882C47.1409 140.882 37.7658 140.882 28.3022 140.882C18.8387 140.882 9.46356 140.882 4.68756 140.882H0V30.3431Z" fill="#04A6E1"/>
	<path d="M0 20.4932L4.68756 21.2593C9.46356 21.916 18.8387 23.4482 28.3022 23.7765C37.7658 24.1048 47.1409 23.4482 56.6044 23.9954C66.068 24.5426 75.4431 26.2937 85.0835 26.1843C94.6355 25.9654 104.364 23.7765 113.916 23.7765C123.557 23.7765 132.932 25.9654 142.396 28.4826C151.859 31.1093 161.234 33.9548 170.698 33.0793C180.161 32.2037 189.536 27.3882 199 27.2787C208.464 27.0598 217.839 31.4376 227.302 36.3626C236.766 41.2876 246.141 46.7598 255.604 48.6204C265.068 50.3715 274.443 48.6204 284.084 43.1482C293.636 37.676 303.364 28.4826 312.916 25.4182C322.557 22.3537 331.932 25.1993 341.396 27.9354C350.859 30.6715 360.234 33.2982 369.698 33.0793C379.161 32.8604 388.536 30.0148 393.312 28.4826L398 27.0598V140.882H393.312C388.536 140.882 379.161 140.882 369.698 140.882C360.234 140.882 350.859 140.882 341.396 140.882C331.932 140.882 322.557 140.882 312.916 140.882C303.364 140.882 293.636 140.882 284.084 140.882C274.443 140.882 265.068 140.882 255.604 140.882C246.141 140.882 236.766 140.882 227.302 140.882C217.839 140.882 208.464 140.882 199 140.882C189.536 140.882 180.161 140.882 170.698 140.882C161.234 140.882 151.859 140.882 142.396 140.882C132.932 140.882 123.557 140.882 113.916 140.882C104.364 140.882 94.6355 140.882 85.0835 140.882C75.4431 140.882 66.068 140.882 56.6044 140.882C47.1409 140.882 37.7658 140.882 28.3022 140.882C18.8387 140.882 9.46356 140.882 4.68756 140.882H0V20.4932Z" fill="#00BCD6"/>
	<path d="M0 62.082L4.68756 63.3954C9.46356 64.5993 18.8387 67.2259 28.3022 65.5843C37.7658 63.9426 47.1409 58.0326 56.6044 57.157C66.068 56.2815 75.4431 60.2215 85.0835 59.6742C94.6355 59.127 104.364 54.0926 113.916 53.6548C123.557 53.3265 132.932 57.7043 142.396 61.7537C151.859 65.6937 161.234 69.4148 170.698 69.1959C180.161 68.977 189.536 65.037 199 65.037C208.464 65.037 217.839 68.977 227.302 67.5542C236.766 66.1315 246.141 59.127 255.604 56.9381C265.068 54.7492 274.443 57.3759 284.084 58.4704C293.636 59.5648 303.364 59.127 312.916 57.157C322.557 55.187 331.932 51.4659 341.396 52.0131C350.859 52.5603 360.234 57.3759 369.698 61.2065C379.161 65.037 388.536 67.8826 393.312 69.4148L398 70.8376V140.882H393.312C388.536 140.882 379.161 140.882 369.698 140.882C360.234 140.882 350.859 140.882 341.396 140.882C331.932 140.882 322.557 140.882 312.916 140.882C303.364 140.882 293.636 140.882 284.084 140.882C274.443 140.882 265.068 140.882 255.604 140.882C246.141 140.882 236.766 140.882 227.302 140.882C217.839 140.882 208.464 140.882 199 140.882C189.536 140.882 180.161 140.882 170.698 140.882C161.234 140.882 151.859 140.882 142.396 140.882C132.932 140.882 123.557 140.882 113.916 140.882C104.364 140.882 94.6355 140.882 85.0835 140.882C75.4431 140.882 66.068 140.882 56.6044 140.882C47.1409 140.882 37.7658 140.882 28.3022 140.882C18.8387 140.882 9.46356 140.882 4.68756 140.882H0V62.082Z" fill="#00CCB8"/>
	<path d="M0 94.9155L4.68756 92.1794C9.46356 89.4433 18.8387 83.971 28.3022 83.7521C37.7658 83.6427 47.1409 88.6771 56.6044 89.9905C66.068 91.3038 75.4431 88.6771 85.0835 87.8016C94.6355 86.926 104.364 87.5827 113.916 88.896C123.557 90.2094 132.932 91.9605 142.396 92.3983C151.859 92.7266 161.234 91.6321 170.698 88.896C180.161 86.1599 189.536 81.7821 199 79.5933C208.464 77.4044 217.839 77.4044 227.302 76.8571C236.766 76.3099 246.141 75.2155 255.604 78.1705C265.068 81.016 274.443 88.0205 284.084 88.3488C293.636 88.6771 303.364 82.5483 312.916 79.2649C322.557 75.9816 331.932 75.5438 341.396 74.9966C350.859 74.4494 360.234 73.7927 369.698 76.091C379.161 78.4988 388.536 83.971 393.312 86.7071L398 89.4433V140.882H393.312C388.536 140.882 379.161 140.882 369.698 140.882C360.234 140.882 350.859 140.882 341.396 140.882C331.932 140.882 322.557 140.882 312.916 140.882C303.364 140.882 293.636 140.882 284.084 140.882C274.443 140.882 265.068 140.882 255.604 140.882C246.141 140.882 236.766 140.882 227.302 140.882C217.839 140.882 208.464 140.882 199 140.882C189.536 140.882 180.161 140.882 170.698 140.882C161.234 140.882 151.859 140.882 142.396 140.882C132.932 140.882 123.557 140.882 113.916 140.882C104.364 140.882 94.6355 140.882 85.0835 140.882C75.4431 140.882 66.068 140.882 56.6044 140.882C47.1409 140.882 37.7658 140.882 28.3022 140.882C18.8387 140.882 9.46356 140.882 4.68756 140.882H0V94.9155Z" fill="#39D77E"/>
	<path d="M0 105.86L4.68756 106.079C9.46356 106.188 18.8387 106.626 28.3022 106.735C37.7658 106.954 47.1409 106.954 56.6044 107.72C66.068 108.377 75.4431 109.909 85.0835 108.596C94.6355 107.283 104.364 103.343 113.916 103.999C123.557 104.765 132.932 110.238 142.396 111.113C151.859 112.098 161.234 108.377 170.698 106.079C180.161 103.671 189.536 102.577 199 101.263C208.464 100.059 217.839 98.5271 227.302 98.746C236.766 98.9649 246.141 100.716 255.604 103.124C265.068 105.532 274.443 108.377 284.084 109.909C293.636 111.332 303.364 111.332 312.916 110.785C322.557 110.238 331.932 109.143 341.396 109.143C350.859 109.143 360.234 110.238 369.698 110.785C379.161 111.332 388.536 111.332 393.312 111.332H398V140.882H393.312C388.536 140.882 379.161 140.882 369.698 140.882C360.234 140.882 350.859 140.882 341.396 140.882C331.932 140.882 322.557 140.882 312.916 140.882C303.364 140.882 293.636 140.882 284.084 140.882C274.443 140.882 265.068 140.882 255.604 140.882C246.141 140.882 236.766 140.882 227.302 140.882C217.839 140.882 208.464 140.882 199 140.882C189.536 140.882 180.161 140.882 170.698 140.882C161.234 140.882 151.859 140.882 142.396 140.882C132.932 140.882 123.557 140.882 113.916 140.882C104.364 140.882 94.6355 140.882 85.0835 140.882C75.4431 140.882 66.068 140.882 56.6044 140.882C47.1409 140.882 37.7658 140.882 28.3022 140.882C18.8387 140.882 9.46356 140.882 4.68756 140.882H0V105.86Z" fill="#95D80A"/>
	</svg>
	